Coordinates
version=1
nRows=6
nColumns=46
inDegrees=yes

Units are S.I. units (second, meters, Newtons, ...)
Angles are in degrees.

endheader
time	pelvis_tilt	pelvis_list	pelvis_rotation	pelvis_tx	pelvis_ty	pelvis_tz	bb_angle	bb_tx	bb_ty	bb_tz	hip_flexion_r	hip_adduction_r	hip_rotation_r	knee_angle_r	knee_angle_r_beta	ankle_angle_r	subtalar_angle_r	mtp_angle_r	crank_angle_r	hip_flexion_l	hip_adduction_l	hip_rotation_l	knee_angle_l	knee_angle_l_beta	ankle_angle_l	subtalar_angle_l	mtp_angle_l	crank_angle_l	lumbar_extension	lumbar_bending	lumbar_rotation	arm_flex_r	arm_add_r	arm_rot_r	elbow_flex_r	pro_sup_r	wrist_flex_r	wrist_dev_r	arm_flex_l	arm_add_l	arm_rot_l	elbow_flex_l	pro_sup_l	wrist_flex_l	wrist_dev_l
      0.00000000	    -17.47214622	     -7.35750492	     -2.00114674	      0.12508929	      1.13359530	     -0.24694198	      0.00000000	      0.50000000	      0.00000000	      0.25000000	     89.98363036	     -7.87848582	     -7.25520014	     99.26687018	      1.73253372	     25.12527214	      3.03273339	      0.00000000	      0.00000000	     47.60884802	    -15.30995532	     -4.06388772	     56.95680159	      0.99408372	     20.36204766	      6.48217667	      0.00000000	      0.00000000	    -47.38912788	      5.64668341	      9.32828964	     89.19902070	    -11.27947978	     38.47229983	     29.35567001	     29.06392547	      0.00000000	      0.00000000	     89.25201841	     -1.36539457	     40.90465032	     20.35410978	     26.35063876	      0.00000000	      0.00000000
      0.00500000	    -17.44843531	     -7.35150354	     -2.03025833	      0.12511025	      1.13365944	     -0.24687528	      0.00000000	      0.50000000	      0.00000000	      0.25000000	     89.96201178	     -7.83386404	     -7.23386142	     99.26947291	      1.73257915	     25.17058089	      3.07744120	      0.00000000	      0.00000000	     47.55201221	    -15.32992309	     -4.09334141	     56.92748126	      0.99357198	     20.43503943	      6.52834429	      0.00000000	      0.00000000	    -47.45264206	      5.63332816	      9.37453727	     89.17650951	    -11.07526588	     37.46698780	     29.20605618	     30.08685103	      0.00000000	      0.00000000	     89.23778417	     -1.21594318	     39.62985953	     20.36395414	     27.46114091	      0.00000000	      0.00000000
      0.01000000	    -17.36990974	     -7.39939805	     -2.01350843	      0.12514259	      1.13377711	     -0.24686042	      0.00000000	      0.50000000	      0.00000000	      0.25000000	     89.85549238	     -7.85373321	     -7.29500317	     99.27944970	      1.73275328	     25.23418758	      3.22808205	      0.00000000	      0.00000000	     47.49078605	    -15.39920855	     -4.09994458	     56.95535399	      0.99405845	     20.47781030	      6.72657685	      0.00000000	      0.00000000	    -47.56689096	      5.64602608	      9.40062508	     89.16006043	    -10.99314595	     36.65570488	     29.22867461	     30.99705046	      0.00000000	      0.00000000	     89.20582776	     -1.10092245	     38.55682290	     20.50377938	     28.44875335	      0.00000000	      0.00000000
      0.01500000	    -17.43090008	     -7.55323037	     -2.10486155	      0.12507620	      1.13338379	     -0.24637289	      0.00000000	      0.50000000	      0.00000000	      0.25000000	     89.93842685	     -7.66131313	     -7.41795963	     99.29433542	      1.73301308	     25.18673869	      3.16651745	      0.00000000	      0.00000000	     47.59083409	    -15.50154112	     -3.89132714	     56.97429105	      0.99438897	     20.49776892	      6.99375935	      0.00000000	      0.00000000	    -47.51933490	      5.66114814	      9.62798612	     89.13551695	    -10.98079619	     35.92611790	     29.27001053	     31.70610300	      0.00000000	      0.00000000	     89.19597814	     -0.89636057	     37.56190270	     20.55008118	     29.19260843	      0.00000000	      0.00000000
      0.02000000	    -17.34073637	     -7.64503838	     -2.08769820	      0.12493664	      1.13388686	     -0.24674652	      0.00000000	      0.50000000	      0.00000000	      0.25000000	     89.75946681	     -7.66356987	     -7.51312483	     99.21781410	      1.73167753	     25.30444850	      3.28541127	      0.00000000	      0.00000000	     47.51929425	    -15.66730599	     -3.91894426	     57.01723043	      0.99513840	     20.72462723	      7.20930819	      0.00000000	      0.00000000	    -47.73513005	      5.71948021	      9.78110813	     89.05690961	    -11.04415215	     34.90836738	     29.88162050	     32.53867038	      0.00000000	      0.00000000	     89.12019578	     -0.97228912	     36.39590334	     21.35319779	     30.13415130	      0.00000000	      0.00000000
      0.02500000	    -17.57948605	     -7.43666476	     -2.07165455	      0.12479928	      1.13335296	     -0.24678384	      0.00000000	      0.50000000	      0.00000000	      0.25000000	     90.13418932	     -7.71690292	     -7.28922078	     99.26362701	      1.73247712	     25.02206297	      2.84339989	      0.00000000	      0.00000000	     47.78122050	    -15.41384405	     -3.95176180	     57.03566317	      0.99546011	     20.51531275	      6.46370116	      0.00000000	      0.00000000	    -47.25087542	      5.59289336	      9.46206868	     89.17628970	    -11.36013345	     38.53864983	     28.77202660	     31.95268191	      0.00000000	      0.00000000	     89.25493289	     -1.39553407	     40.74988961	     19.95559321	     29.05930598	      0.00000000	      0.00000000
